<svg viewBoxSize="575" data-root-id="6192919908303" xmlns="http://www.w3.org/2000/svg" xmlns:xlink="http://www.w3.org/1999/xlink" version="1.1" x="234.359" y="167.5" viewBox="4.536622047424316 2.8346457481384277 70.29683685302734 79.37007904052734" xml:space="preserve" height="120" width="106.28227886087474" preserveAspectRatio="xMinYMin" zoom="1" editorType="buyer" data-layer-role="icon" style="position: absolute; height: 120px; width: 106.282px; top: 167.5px; left: 234.359px;"><g id="Layer_3" name="Layer %{number}" zoom="1" data-layer-id="2532870308303"></g><path id="Layer_1" class="st44" d="M13.3564901,72.413208l51.7770233-29.8935013L13.3564911,12.6261902   c-3.9199409-2.2631807-8.819869,0.5657921-8.819869,5.0921516v49.6027184   C4.536622,71.8474197,9.4365492,74.6763916,13.3564901,72.413208z" name="Layer %{number}" zoom="1" data-layer-id="9948085708303" style="fill: rgb(225, 107, 252); fill-opacity: 1;"></path><path id="Layer_1" class="st43" d="M71.8935013,46.4225883L28.9363575,21.6212349c-3.919939-2.2631817-8.8198662,0.5657883-8.8198681,5.0921459   L20.1164608,76.31604c-0.0000038,4.5263519,4.8999214,7.3553314,8.8198624,5.0921555l42.9571762-24.8013039   C75.8134384,54.3437157,75.813446,48.6857681,71.8935013,46.4225883z" name="Layer %{number}" zoom="1" data-layer-id="4464965908303" style="fill: rgb(194, 42, 246); fill-opacity: 1;"></path><path id="Layer_1" class="st45" d="M71.8935013,28.4325314L28.9363575,3.6311781c-3.919939-2.2631807-8.8198662,0.5657899-8.8198681,5.0921478   l-0.0000286,49.6026535c-0.0000038,4.5263596,4.8999214,7.3553314,8.8198624,5.0921593l42.9571762-24.8013039   C75.8134384,36.3536606,75.813446,30.6957111,71.8935013,28.4325314z" name="Layer %{number}" zoom="1" data-layer-id="0882092508303" style="fill: rgb(98, 212, 249); fill-opacity: 1;"></path><path id="Layer_1" class="st0" d="M56.313652,37.4275513L28.936348,21.6212349c-3.919939-2.2631817-8.8198681,0.5657883-8.81987,5.0921459   l-0.0000172,31.6126003c-0.0000038,4.5263596,4.8999214,7.3553314,8.8198624,5.0921593l27.3773251-15.8062859   C60.2335892,45.3486786,60.233593,39.690731,56.313652,37.4275513z" name="Layer %{number}" zoom="1" data-layer-id="9333640408303" style="fill: rgb(255, 255, 255);"></path></svg>